<?xml version="1.0" encoding="utf-8"?>
<!-- Generator: Adobe Illustrator 26.5.3, SVG Export Plug-In . SVG Version: 6.00 Build 0)  -->
<svg version="1.1" id="Layer_1" xmlns="http://www.w3.org/2000/svg" xmlns:xlink="http://www.w3.org/1999/xlink" x="0px" y="0px"
	 viewBox="0 0 357.3 362.6" style="enable-background:new 0 0 357.3 362.6;" xml:space="preserve">
<style type="text/css">
	.st0{fill:none;stroke:#FF5858;stroke-width:5;stroke-linejoin:round;stroke-miterlimit:10;}
	.st1{fill:none;stroke:#FF5858;stroke-width:5;stroke-linecap:round;stroke-linejoin:round;stroke-miterlimit:10;}
	.st2{fill:#FF5858;}
</style>
<g>
	<rect x="2.5" y="58.1" class="st0" width="352.3" height="244.6"/>
	<line class="st1" x1="2.5" y1="360.1" x2="354.8" y2="360.1"/>
	<line class="st1" x1="2.5" y1="2.5" x2="354.8" y2="2.5"/>
	<polyline class="st1" points="2.5,13.3 19.3,13.3 19.3,47 2.5,47 	"/>
	<polyline class="st1" points="354.8,13.3 338,13.3 338,47 354.8,47 	"/>
	<polyline class="st1" points="354.8,314.4 338,314.4 338,348.1 354.8,348.1 	"/>
	<polyline class="st1" points="2.5,314.4 19.3,314.4 19.3,348.1 2.5,348.1 	"/>
	<rect x="53.3" y="13.3" class="st1" width="23" height="33.7"/>
	<rect x="53.3" y="314.4" class="st1" width="23" height="33.7"/>
	<rect x="110.2" y="314.4" class="st1" width="23" height="33.7"/>
	<rect x="167.2" y="314.4" class="st1" width="23" height="33.7"/>
	<rect x="224.1" y="314.4" class="st1" width="23" height="33.7"/>
	<rect x="281" y="314.4" class="st1" width="23" height="33.7"/>
	<rect x="110.2" y="13.3" class="st1" width="23" height="33.7"/>
	<rect x="167.2" y="13.3" class="st1" width="23" height="33.7"/>
	<rect x="224.1" y="13.3" class="st1" width="23" height="33.7"/>
	<rect x="281" y="13.3" class="st1" width="23" height="33.7"/>
	<path class="st1" d="M145.5,195.3l24.1,24l-7.7,8.4l-24.6-24.3L261.9,80.1c8.8,12.8,13.1,25.9-1.3,40.6l-90.4,90.4"/>
	<path class="st1" d="M253.2,95.1c4.5,5.8,5.3,12.1-3.1,19.9L187,177.6c-8,7.1-9.2,13.8-3.5,20"/>
	<line class="st1" x1="263.4" y1="132.8" x2="263.4" y2="172"/>
	<line class="st1" x1="218.3" y1="200.6" x2="218.3" y2="235.1"/>
	<line class="st1" x1="241.1" y1="160.9" x2="241.1" y2="183.7"/>
	<line class="st1" x1="263.4" y1="189.2" x2="263.4" y2="206.4"/>
	<line class="st1" x1="218.3" y1="183" x2="218.3" y2="189.5"/>
	<path class="st1" d="M133.2,207.4l-46.5,46.8c-11,12.4,3.3,31.7,20.3,20.2c-1.8-5.1-3.2-5.6,5.1-13.5c9-8.6,25.1-24.9,37.4-37.1"/>
	<circle class="st2" cx="129.5" cy="227.5" r="2.8"/>
	<circle class="st2" cx="117.5" cy="239.4" r="2.8"/>
	<circle class="st2" cx="105.6" cy="251.6" r="2.8"/>
</g>
</svg>
