<?xml version="1.0" encoding="utf-8"?>
<!-- Generator: Adobe Illustrator 26.5.3, SVG Export Plug-In . SVG Version: 6.00 Build 0)  -->
<svg version="1.1" id="Layer_1" xmlns="http://www.w3.org/2000/svg" xmlns:xlink="http://www.w3.org/1999/xlink" x="0px" y="0px"
	 viewBox="0 0 1500 863" style="enable-background:new 0 0 1500 863;" xml:space="preserve">
<style type="text/css">
	.st0{fill:#FF5858;}
	.st1{fill:none;stroke:#FF5858;stroke-width:5;stroke-linejoin:round;stroke-miterlimit:10;}
	.st2{fill:none;stroke:#FF5858;stroke-width:5;stroke-linecap:round;stroke-linejoin:round;stroke-miterlimit:10;}
	.st3{fill:none;}
	.st4{font-family:'Haettenschweiler';}
	.st5{font-size:363px;}
</style>
<rect x="152.6" y="376.1" class="st0" width="394.5" height="24.6"/>
<rect x="953.7" y="376.1" class="st0" width="394.5" height="24.6"/>
<rect x="152.6" y="423.6" class="st0" width="394.5" height="24.6"/>
<rect x="953.7" y="423.6" class="st0" width="394.5" height="24.6"/>
<g>
	<rect x="574" y="146.2" class="st1" width="352.3" height="244.6"/>
	<line class="st2" x1="574" y1="448.2" x2="926.3" y2="448.2"/>
	<line class="st2" x1="574" y1="90.6" x2="926.3" y2="90.6"/>
	<polyline class="st2" points="574,101.4 590.8,101.4 590.8,135.1 574,135.1 	"/>
	<polyline class="st2" points="926.3,101.4 909.5,101.4 909.5,135.1 926.3,135.1 	"/>
	<polyline class="st2" points="926.3,402.5 909.5,402.5 909.5,436.2 926.3,436.2 	"/>
	<polyline class="st2" points="574,402.5 590.8,402.5 590.8,436.2 574,436.2 	"/>
	<rect x="624.8" y="101.4" class="st2" width="23" height="33.7"/>
	<rect x="624.8" y="402.5" class="st2" width="23" height="33.7"/>
	<rect x="681.7" y="402.5" class="st2" width="23" height="33.7"/>
	<rect x="738.7" y="402.5" class="st2" width="23" height="33.7"/>
	<rect x="795.6" y="402.5" class="st2" width="23" height="33.7"/>
	<rect x="852.5" y="402.5" class="st2" width="23" height="33.7"/>
	<rect x="681.7" y="101.4" class="st2" width="23" height="33.7"/>
	<rect x="738.7" y="101.4" class="st2" width="23" height="33.7"/>
	<rect x="795.6" y="101.4" class="st2" width="23" height="33.7"/>
	<rect x="852.5" y="101.4" class="st2" width="23" height="33.7"/>
	<path class="st2" d="M717,283.4l24.1,24l-7.7,8.4l-24.6-24.3l124.6-123.3c8.8,12.8,13.1,25.9-1.3,40.6l-90.4,90.4"/>
	<path class="st2" d="M824.7,183.2c4.5,5.8,5.3,12.1-3.1,19.9l-63.1,62.6c-8,7.1-9.2,13.8-3.5,20"/>
	<line class="st2" x1="834.9" y1="220.9" x2="834.9" y2="260.1"/>
	<line class="st2" x1="789.8" y1="288.7" x2="789.8" y2="323.2"/>
	<line class="st2" x1="812.6" y1="249" x2="812.6" y2="271.8"/>
	<line class="st2" x1="834.9" y1="277.3" x2="834.9" y2="294.5"/>
	<line class="st2" x1="789.8" y1="271.1" x2="789.8" y2="277.6"/>
	<path class="st2" d="M704.7,295.5l-46.5,46.8c-11,12.4,3.3,31.7,20.3,20.2c-1.8-5.1-3.2-5.6,5.1-13.5c9-8.6,25.1-24.9,37.4-37.1"/>
	<circle class="st0" cx="701" cy="315.6" r="2.8"/>
	<circle class="st0" cx="689" cy="327.5" r="2.8"/>
	<circle class="st0" cx="677.1" cy="339.7" r="2.8"/>
</g>
<g>
	<rect x="151.8" y="491.8" class="st3" width="1196.5" height="290.2"/>
	<text transform="matrix(1 0 0 1 151.7659 745.864)" class="st0 st4 st5">flick faves</text>
</g>
</svg>
